# xmcd
# 
# Track frame offsets:
#     150
#     16532
#     30580
#     47539
#     62857
#     79175
#     94575
#     110050
#     125335
#     141255
#     157747
#     169759
#     193892
# 
# Disc length: 2643
# 
# Revision: 10
# Processed by: cddbd v1.5.2PL0 Copyright (c) Steve Scherf et al.
# Submitted via: BonkEnc v1.0.8
# 
DISCID=a10a510d
DTITLE=VAST - Music for People
DYEAR=2000
DGENRE=Alternative Rock
TTITLE0=The Last One Alive
TTITLE1=Free
TTITLE2=I Don't Have Anything
TTITLE3=The Gates of Rock 'N' Roll
TTITLE4=What Else Do I Need
TTITLE5=Blue
TTITLE6=Land of Shame
TTITLE7=A Better Place
TTITLE8=Song Without a Name
TTITLE9=We Will Meet Again
TTITLE10=My TV And You
TTITLE11=Lady of Dreams
TTITLE12=[Data]
EXTD=YEAR: 2000
EXTT0=
EXTT1=
EXTT2=
EXTT3=
EXTT4=
EXTT5=
EXTT6=
EXTT7=
EXTT8=
EXTT9=
EXTT10=
EXTT11=
EXTT12=
PLAYORDER=
